<?xml version="1.0" encoding="utf-8"?>
<!-- Generator: Adobe Illustrator 23.0.2, SVG Export Plug-In . SVG Version: 6.00 Build 0)  -->
<svg version="1.1" id="图层_1" xmlns="http://www.w3.org/2000/svg" xmlns:xlink="http://www.w3.org/1999/xlink" x="0px" y="0px"
	 viewBox="0 0 1688 480" style="enable-background:new 0 0 1688 480;" xml:space="preserve">
<style type="text/css">
	.st0{fill:#FFFFFF;}
	.st1{fill-rule:evenodd;clip-rule:evenodd;fill:#247BFF;}
</style>
<path class="st0" d="M264,48c0,4.4-0.6,8.6-1.7,12.6l87.3,49.9c8.7-9,20.9-14.5,34.4-14.5c26.5,0,48,21.5,48,48
	c0,22.4-15.3,41.2-36,46.5v99c20.7,5.3,36,24.1,36,46.5c0,26.5-21.5,48-48,48c-13.5,0-25.7-5.6-34.4-14.5l-87.3,49.9
	c1.1,4,1.7,8.3,1.7,12.6c0,26.5-21.5,48-48,48s-48-21.5-48-48c0-4.4,0.6-8.6,1.7-12.6l-87.3-49.9c-8.7,9-20.9,14.5-34.4,14.5
	c-26.5,0-48-21.5-48-48c0-22.4,15.3-41.2,36-46.5v-99C15.3,185.2,0,166.4,0,144c0-26.5,21.5-48,48-48c13.5,0,25.7,5.6,34.4,14.5
	l87.3-49.9c-1.1-4-1.7-8.3-1.7-12.6c0-26.5,21.5-48,48-48S264,21.5,264,48z M204,94.5c-8.7-2.2-16.4-6.8-22.4-13l-87.3,49.9
	c1.1,4,1.7,8.3,1.7,12.6c0,22.4-15.3,41.2-36,46.5v99c8.7,2.2,16.4,6.8,22.4,13l87.3-49.9c-1.1-4-1.7-8.3-1.7-12.6
	c0-22.4,15.3-41.2,36-46.5V94.5z M228,94.5v99c20.7,5.3,36,24.1,36,46.5c0,4.4-0.6,8.6-1.7,12.6l87.3,49.9c6-6.2,13.7-10.8,22.4-13
	v-99c-20.7-5.3-36-24.1-36-46.5c0-4.4,0.6-8.6,1.7-12.6l-87.3-49.9C244.4,87.7,236.7,92.3,228,94.5z M216,288
	c-13.5,0-25.7-5.6-34.4-14.5l-87.3,49.9c1.1,4,1.7,8.3,1.7,12.6s-0.6,8.6-1.7,12.6l87.3,49.9c8.7-9,20.9-14.5,34.4-14.5
	s25.7,5.6,34.4,14.5l87.3-49.9c-1.1-4-1.7-8.3-1.7-12.6s0.6-8.6,1.7-12.6l-87.3-49.9C241.7,282.4,229.5,288,216,288z"/>
<path class="st0" d="M528.3,82.5c-0.3,0.7-0.3,1.7-0.3,3.5v307.6c0,2.2,0,3.4,0.4,4.2c0.4,0.8,1,1.4,1.7,1.7c0.9,0.4,2,0.4,4.2,0.4
	H686c54.1,0,98-43.9,98-98c0-29.3-12.9-55.7-33.3-73.6C761.6,213,768,194.3,768,174c0-51.9-42.1-94-94-94H534c-1.9,0-2.8,0-3.5,0.3
	C529.5,80.7,528.7,81.5,528.3,82.5z M592,268h94c18.8,0,34,15.2,34,34s-15.2,34-34,34h-94V268z M674,144c16.6,0,30,13.4,30,30
	s-13.4,30-30,30h-82v-60H674z"/>
<path class="st0" d="M850,136c21,0,38-17,38-38c0-21-17-38-38-38s-38,17-38,38C812,119,829,136,850,136z"/>
<path class="st0" d="M816.4,162.2c-0.4,0.9-0.4,2-0.4,4.2v227.2c0,2.2,0,3.4,0.4,4.2c0.4,0.8,1,1.4,1.7,1.7c0.9,0.4,2,0.4,4.2,0.4
	h55.2c2.2,0,3.4,0,4.2-0.4c0.8-0.4,1.4-1,1.7-1.7c0.4-0.9,0.4-2,0.4-4.2V166.4c0-2.2,0-3.4-0.4-4.2c-0.4-0.8-1-1.4-1.7-1.7
	c-0.9-0.4-2-0.4-4.2-0.4h-55.2c-2.2,0-3.4,0-4.2,0.4C817.4,160.8,816.8,161.4,816.4,162.2z"/>
<path class="st0" d="M924,86.4c0-2.2,0-3.4,0.4-4.2c0.4-0.8,1-1.4,1.7-1.7c0.9-0.4,2-0.4,4.2-0.4h51.2c2.2,0,3.4,0,4.2,0.4
	c0.8,0.4,1.4,1,1.7,1.7c0.4,0.9,0.4,2,0.4,4.2v83.9c18.7-11.6,40.6-18.3,64-18.3c68.5,0,124,57.3,124,128s-55.5,128-124,128
	c-25.4,0-49-7.9-68.6-21.4l-21.9,12.5c-0.5,0.3-0.8,0.5-1.1,0.6c-0.3,0.1-0.5,0.2-0.8,0.2c-0.3,0-0.6,0-1.3,0h-27.9
	c-2.2,0-3.4,0-4.2-0.4c-0.8-0.4-1.4-1-1.7-1.7c-0.4-0.9-0.4-2-0.4-4.2V86.4z M1050,344c34.2,0,62-28.7,62-64s-27.8-64-62-64
	s-62,28.7-62,64S1015.8,344,1050,344z"/>
<path class="st0" d="M1328,408c70.7,0,128-57.3,128-128s-57.3-128-128-128s-128,57.3-128,128S1257.3,408,1328,408z M1328,344
	c-35.3,0-64-28.7-64-64s28.7-64,64-64s64,28.7,64,64S1363.3,344,1328,344z"/>
<path class="st0" d="M1448,160h77l43,63.3l43-63.3h77l-81.5,120l81.5,120h-77l-43-63.3l-43,63.3h-77l81.5-120L1448,160z"/>
<path class="st1" d="M1328,408c70.7,0,128-57.3,128-128s-57.3-128-128-128s-128,57.3-128,128S1257.3,408,1328,408z"/>
<path class="st0" d="M1326.7,191.4c-2.1-0.6-4.3,0.7-4.9,2.8l-5.2,19.3l-19.3-5.2c-2.1-0.6-4.3,0.7-4.9,2.8l-4.1,15.5
	c-0.6,2.1,0.7,4.3,2.8,4.9l11.6,3.1l-18.6,69.5l-11.6-3.1c-2.1-0.6-4.3,0.7-4.9,2.8l-4.1,15.5c-0.6,2.1,0.7,4.3,2.8,4.9l19.3,5.2
	l-5.2,19.3c-0.6,2.1,0.7,4.3,2.8,4.9l7.7,2.1c2.1,0.6,4.3-0.7,4.9-2.8l5.2-19.3l15.4,4.1l-5.2,19.3c-0.6,2.1,0.7,4.3,2.8,4.9
	l7.7,2.1c2.1,0.6,4.3-0.7,4.9-2.8l5.2-19.3l5.3,1.4c19.5,5.2,39.5-6.3,44.7-25.8c3.1-11.7,0.2-23.6-6.9-32.4
	c5.1-4.4,9-10.3,10.9-17.3c4.8-17.9-5.4-36.3-22.9-41.8l5.2-19.3c0.6-2.1-0.7-4.3-2.8-4.9l-7.7-2.1c-2.1-0.6-4.3,0.7-4.9,2.8
	l-5.2,19.3l-15.5-4.1l5.2-19.3c0.6-2.1-0.7-4.3-2.8-4.9L1326.7,191.4z M1314.2,284.3l35.3,9.4c7.2,1.9,11.5,9.3,9.5,16.5
	c-1.9,7.2-9.3,11.5-16.5,9.5l-35.3-9.4L1314.2,284.3z M1354.4,248.5c6.1,1.6,9.8,8,8.1,14.1c-1.6,6.1-8,9.8-14.1,8.1l-28.5-7.6
	l6-22.2L1354.4,248.5z"/>
</svg>
