<svg version="1.2" baseProfile="tiny-ps" xmlns="http://www.w3.org/2000/svg" viewBox="0 0 24 17" width="24" height="17">
	<title>docs-svg</title>
	<style>
		tspan { white-space:pre }
		.shp0 { fill: #757c8e } 
	</style>
	<g id="Layer_2">
		<g id="Layer_1-2">
			<path id="Layer" fill-rule="evenodd" class="shp0" d="M8.86 13.87C8.94 13.76 9 13.65 9.08 13.55C9.53 12.99 10.11 12.7 10.84 12.7C11.53 12.7 12.09 12.99 12.53 13.51C12.59 13.59 12.63 13.59 12.72 13.55C14.04 12.85 15.37 12.16 16.69 11.47L19.61 9.94L19.7 9.89C19.67 9.66 19.62 9.45 19.62 9.23C19.61 8.97 19.66 8.72 19.74 8.48C19.83 8.24 19.96 8.01 20.13 7.82C20.3 7.62 20.51 7.46 20.74 7.34C20.97 7.21 21.22 7.13 21.48 7.1C22.67 6.93 23.67 7.69 23.92 8.75C24.18 9.9 23.44 10.96 22.44 11.25C22.28 11.3 22.13 11.33 21.97 11.35C21.81 11.36 21.65 11.36 21.49 11.33C21.34 11.31 21.18 11.27 21.03 11.22C20.89 11.16 20.74 11.09 20.61 11C20.59 10.98 20.56 10.97 20.54 10.96C20.51 10.95 20.48 10.94 20.45 10.94C20.42 10.94 20.4 10.94 20.37 10.95C20.34 10.96 20.31 10.97 20.29 10.99C19.36 11.49 18.43 11.99 17.49 12.48C16.15 13.19 14.81 13.9 13.48 14.61C13.46 14.62 13.44 14.64 13.42 14.65C13.4 14.66 13.38 14.67 13.36 14.68C13.34 14.69 13.32 14.7 13.3 14.71C13.28 14.72 13.26 14.73 13.24 14.74C13.03 14.8 12.99 14.96 12.97 15.13C12.88 15.95 12.23 16.69 11.39 16.89C10.19 17.17 9.08 16.57 8.74 15.41C8.72 15.37 8.71 15.32 8.68 15.28C8.66 15.23 8.63 15.19 8.6 15.16C8.57 15.12 8.53 15.09 8.49 15.06C8.45 15.03 8.41 15.01 8.36 14.99C6.96 14.28 5.57 13.57 4.17 12.86C3.46 12.51 2.76 12.14 2.05 11.8C1.29 11.43 0.79 10.83 0.45 10.09C0.38 9.94 0.32 9.78 0.26 9.62C0.21 9.46 0.17 9.3 0.13 9.14C0.1 8.97 0.08 8.81 0.06 8.64C0.05 8.47 0.04 8.31 0.05 8.14C0.08 7.51 0.23 6.91 0.64 6.41C0.68 6.35 0.73 6.3 0.78 6.25C0.82 6.2 0.87 6.16 0.93 6.12C0.98 6.07 1.04 6.03 1.1 5.99C1.15 5.96 1.21 5.92 1.28 5.89C2.2 5.44 3.12 4.98 4.05 4.53C5.25 3.94 6.45 3.35 7.66 2.76C9.33 1.95 11.01 1.14 12.68 0.32C12.94 0.2 13.19 0.09 13.47 0.06C13.56 0.06 13.65 0.06 13.73 0.06C13.82 0.07 13.9 0.08 13.99 0.09C14.07 0.11 14.16 0.13 14.24 0.15C14.32 0.18 14.4 0.21 14.48 0.25C16.35 1.13 18.22 2.01 20.1 2.89C20.97 3.3 21.84 3.7 22.72 4.1C22.92 4.2 23.05 4.35 23.05 4.57C23.05 4.79 22.91 4.93 22.71 5.03C21.76 5.51 20.81 5.99 19.87 6.48C18.39 7.23 16.91 7.99 15.44 8.74C14.03 9.46 12.62 10.17 11.21 10.89C10.94 11.03 10.66 11.16 10.34 11.1C10.31 11.09 10.27 11.08 10.24 11.07C10.2 11.06 10.17 11.05 10.13 11.04C10.1 11.03 10.07 11.01 10.04 11C10 10.98 9.97 10.97 9.94 10.95C8.97 10.46 8 9.96 7.03 9.46L3.74 7.77C3.32 7.55 2.9 7.34 2.48 7.12C2.05 6.89 1.71 7 1.5 7.44C1.32 7.83 1.32 8.23 1.37 8.64C1.38 8.75 1.4 8.86 1.42 8.97C1.44 9.08 1.47 9.18 1.51 9.28C1.54 9.39 1.59 9.49 1.63 9.59C1.68 9.69 1.73 9.79 1.79 9.88C1.83 9.96 1.89 10.03 1.94 10.1C2 10.17 2.06 10.24 2.12 10.3C2.19 10.36 2.26 10.42 2.33 10.47C2.41 10.52 2.48 10.57 2.56 10.61C3.83 11.26 5.1 11.92 6.36 12.57L8.8 13.83L8.86 13.87ZM11.5 14.83C11.5 14.83 11.5 14.83 11.5 14.84C11.5 14.84 11.5 14.84 11.5 14.84L11.5 14.83ZM11.45 14.57C11.41 14.49 11.36 14.42 11.3 14.35C11.24 14.29 11.16 14.24 11.07 14.21C10.99 14.17 10.9 14.16 10.81 14.16C10.71 14.16 10.62 14.18 10.54 14.22C10.45 14.26 10.37 14.32 10.31 14.39C10.25 14.46 10.2 14.54 10.17 14.63C10.14 14.71 10.13 14.81 10.14 14.9C10.15 14.98 10.18 15.06 10.22 15.14C10.25 15.21 10.31 15.27 10.37 15.33C10.43 15.38 10.51 15.43 10.59 15.46C10.66 15.49 10.75 15.5 10.83 15.5C10.92 15.5 11.01 15.48 11.09 15.45C11.17 15.42 11.25 15.37 11.31 15.3C11.37 15.24 11.42 15.17 11.45 15.09C11.48 15.01 11.5 14.92 11.5 14.84C11.5 14.75 11.48 14.66 11.45 14.57ZM21.12 9.21C21.12 9.3 21.13 9.38 21.16 9.47C21.2 9.55 21.25 9.62 21.31 9.69C21.37 9.75 21.45 9.8 21.53 9.83C21.61 9.87 21.7 9.88 21.79 9.88C21.88 9.88 21.97 9.87 22.05 9.83C22.13 9.8 22.21 9.75 22.27 9.69C22.34 9.63 22.39 9.56 22.42 9.48C22.46 9.4 22.48 9.32 22.48 9.23C22.48 9.05 22.41 8.88 22.29 8.75C22.16 8.63 21.99 8.55 21.81 8.55C21.63 8.55 21.45 8.62 21.33 8.74C21.2 8.86 21.12 9.03 21.12 9.21L21.12 9.21Z" />
		</g>
	</g>
</svg>