<svg version="1.2" baseProfile="tiny-ps" xmlns="http://www.w3.org/2000/svg" viewBox="0 0 189 151" width="189" height="151">
	<title>medium-svg</title>
	<style>
		tspan { white-space:pre }
		.shp0 { fill: #757c8e } 
	</style>
	<g id="Layer_2">
		<g id="Layer_1-2">
			<path id="Layer" class="shp0" d="M42.84 31.82L42.84 128.49L56.23 128.49L56.23 150.21L0 150.21L0 128.54C1.55 128.54 3.09 128.54 4.63 128.54C5.97 128.57 7.3 128.33 8.54 127.83C9.78 127.33 10.9 126.59 11.85 125.64C12.8 124.69 13.54 123.57 14.04 122.33C14.54 121.09 14.78 119.76 14.75 118.42C14.81 89.83 14.81 61.24 14.75 32.65C14.75 27.52 11.23 23.2 6.05 22.78L0.05 22.29L0.05 0.82L71.05 0.82C78.8 29.77 86.57 58.79 94.35 87.87L94.64 87.87C95.42 84.87 96.19 81.96 96.98 79.02C99.5 69.63 102.05 60.25 104.57 50.86C106.47 43.77 108.36 36.68 110.24 29.58L116.9 5C116.9 5 116.96 4.91 116.98 4.86C117.35 3.54 117.32 1.62 118.18 1.07C119.27 0.37 121.07 0.72 122.56 0.72L188.94 0.72L188.94 22.33C186.86 22.5 184.85 22.69 182.84 22.82C178.58 23.08 174.48 27.31 174.47 31.58C174.47 60.98 174.47 90.38 174.47 119.77C174.47 124.04 179.06 128.52 183.47 128.58C185.25 128.58 187.02 128.58 189.05 128.58L189.05 150.58L121.76 150.58L121.76 128.62L135.11 128.62L135.11 32.05L134.85 31.96C123.85 71.39 112.85 110.82 101.85 150.26L76.15 150.26C65.13 110.74 54.13 71.24 43.15 31.77L42.84 31.82Z" />
		</g>
	</g>
</svg>